<?xml version="1.0" encoding="UTF-8" standalone="no"?>
<!DOCTYPE svg PUBLIC "-//W3C//DTD SVG 1.1//EN" "http://www.w3.org/Graphics/SVG/1.1/DTD/svg11.dtd">
<svg width="100%" height="100%" viewBox="0 0 768 800" version="1.1" xmlns="http://www.w3.org/2000/svg" xmlns:xlink="http://www.w3.org/1999/xlink" xml:space="preserve" xmlns:serif="http://www.serif.com/" style="fill-rule:evenodd;clip-rule:evenodd;">
    <g id="SVG">
        <path id="path4167" d="M104.507,653.971C104.507,653.971 84.965,629.569 79.834,596.085C79.834,596.085 74.974,554.231 75.244,532.358C75.244,532.358 77.404,475.922 85.505,450.81C85.505,450.81 93.336,414.356 109.268,387.893L130.87,353.059C130.87,353.059 134.827,338.972 148.553,344.168C148.553,344.168 164.353,348.199 189.466,348.199L339.602,344.958C339.602,344.958 350.403,344.418 369.575,337.398C369.575,337.398 382.807,333.617 398.738,333.617L464.896,330.647C464.896,330.647 470.026,332.807 485.688,322.276L501.89,308.504C501.89,308.504 510.8,296.083 508.91,291.223C508.91,291.223 509.45,284.202 507.29,278.531L486.768,237.487C486.768,237.487 482.177,228.903 483.441,219.424C483.441,219.424 483.47,211.931 486.489,209.162L578.038,122.455C578.038,122.455 589.379,111.923 595.319,111.923C595.319,111.923 605.041,109.493 604.23,121.104C604.23,121.104 603.96,158.098 606.931,172.14L610.981,190.772C610.981,190.772 612.061,202.383 621.242,200.763C621.242,200.763 629.073,200.493 629.343,190.772L628.533,162.689C628.533,162.689 625.563,148.377 642.575,147.837L670.117,146.757C670.117,146.757 681.729,145.137 679.298,160.529L671.468,194.012C671.468,194.012 651.485,262.6 609.361,309.585C609.361,309.585 552.925,355.219 502.43,366.291C502.43,366.291 485.688,372.231 445.454,373.581L349.852,375.867C349.852,375.867 345.853,380.75 346.083,385.463L345.128,394.573C345.128,394.573 336.706,395.474 333.411,395.559L310.689,395.559L300.988,390.323C300.988,390.323 291.807,382.222 281.816,384.383L221.6,384.653L180.285,386.273C180.285,386.273 161.653,385.463 154.632,402.474C154.632,402.474 143.706,423.705 134.423,477.539L140.469,483.79C140.469,483.79 143.752,485.723 144.352,493.489L145.518,552.081C145.518,552.081 145.452,560.711 133.03,576.913C133.03,576.913 124.373,587.951 130.043,610.094C130.043,610.094 138.701,636.319 162.463,654.411C162.463,654.411 180.015,670.613 191.626,674.934C191.626,674.934 205.938,680.334 204.048,693.836C204.048,693.836 204.048,703.827 190.276,703.287L116.348,695.186C116.348,695.186 102.807,695.436 106.857,682.204C106.857,682.204 115.063,666.114 104.507,653.971Z" style="fill:none;stroke:black;stroke-width:10.42px;"/>
    </g>
</svg>
